<svg id="Layer_1" data-name="Layer 1" xmlns="http://www.w3.org/2000/svg" viewBox="0 0 279.4 190.05"><defs><style>.cls-1{fill:#c9233b;}.cls-2{fill:#dd2238;}.cls-3{fill:#ff1d25;}.cls-4{fill:#af223d;}.cls-5{fill:#931d3a;}</style></defs><title>flag-red2</title><polygon class="cls-1" points="0 167.69 0 190.05 279.4 190.05 266.5 167.69 0 167.69"/><polygon class="cls-1" points="279.08 0 0 0 0 22.36 266.17 22.36 279.08 0"/><polygon class="cls-2" points="224.38 94.75 266.17 22.36 0 22.36 0 95.03 224.54 95.03 224.38 94.75"/><polygon class="cls-3" points="224.54 95.03 0 95.03 0 167.69 266.5 167.69 224.54 95.03"/><rect class="cls-4" x="-83.64" y="84.46" width="190.05" height="20.92" transform="translate(-84.14 106.41) rotate(-90)"/><rect class="cls-5" x="-36.13" y="36.95" width="95.03" height="20.92" transform="translate(-36.62 58.9) rotate(-90)"/><polygon class="cls-4" points="200.65 94.59 200.56 94.65 200.59 94.7 200.56 94.75 200.65 94.8 253.58 190.05 279.02 190.05 226.03 94.7 278.65 0 253.22 0 200.65 94.59"/><polygon class="cls-5" points="200.65 94.59 200.56 94.65 200.59 94.7 200.56 94.75 200.65 94.8 200.77 95.03 226.21 95.03 226.03 94.7 278.53 0.22 253.09 0.22 200.65 94.59"/></svg>